<?xml version="1.0" standalone="no"?>
<!DOCTYPE svg PUBLIC "-//W3C//DTD SVG 1.1//EN" "http://www.w3.org/Graphics/SVG/1.1/DTD/svg11.dtd" >
<svg>
<metadata>
Created by FontForge 20110222 at Fri May 23 00:17:15 2014
 By deploy user
Copyright CaptainFalcon 2012
</metadata>
<defs>
<font id="Mecha" horiz-adv-x="448" >
  <font-face 
    font-family="Mecha"
    font-weight="400"
    font-stretch="normal"
    units-per-em="1024"
    panose-1="0 0 4 0 0 0 0 0 0 0"
    ascent="819"
    descent="-205"
    x-height="512"
    cap-height="704"
    bbox="0 -128 832 896"
    underline-thickness="51"
    underline-position="127"
    unicode-range="U+0020-2265"
  />
<missing-glyph horiz-adv-x="256" 
 />
    <glyph glyph-name=".notdef" horiz-adv-x="256" 
 />
    <glyph glyph-name="nonmarkingreturn" horiz-adv-x="128" 
 />
    <glyph glyph-name="space" unicode=" " horiz-adv-x="256" 
 />
    <glyph glyph-name="exclam" unicode="!" horiz-adv-x="192" 
d="M64 0v64h64v-64h-64zM64 192v512h64v-512h-64z" />
    <glyph glyph-name="quotedbl" unicode="&#x22;" horiz-adv-x="320" 
d="M64 512v192h64v-192h-64zM192 512v192h64v-192h-64z" />
    <glyph glyph-name="numbersign" unicode="#" horiz-adv-x="512" 
d="M320 192v256h-128v-256h128zM128 0v128h-64v64h64v256h-64v64h64v192h64v-192h128v192h64v-192h64v-64h-64v-256h64v-64h-64v-128h-64v128h-128v-128h-64z" />
    <glyph glyph-name="dollar" unicode="$" 
d="M192 0v64h-128v64h256v192h-256v320h128v64h64v-64h128v-64h-256v-192h256v-320h-128v-64h-64z" />
    <glyph glyph-name="percent" unicode="%" 
d="M256 0v128h128v-128h-128zM64 64v128h64v-128h-64zM128 192v128h64v-128h-64zM192 320v128h64v-128h-64zM256 448v128h64v-128h-64zM64 576v128h128v-128h-128zM320 576v128h64v-128h-64z" />
    <glyph glyph-name="ampersand" unicode="&#x26;" 
d="M64 0v320h64v-256h192v256h-192v64h192v64h64v-448h-320zM64 384v320h320v-64h-256v-256h-64z" />
    <glyph glyph-name="quotesingle" unicode="'" horiz-adv-x="192" 
d="M64 576v128h64v-128h-64z" />
    <glyph glyph-name="parenleft" unicode="(" horiz-adv-x="256" 
d="M128 -64v64h64v-64h-64zM64 0v704h64v-704h-64zM128 704v64h64v-64h-64z" />
    <glyph glyph-name="parenright" unicode=")" horiz-adv-x="256" 
d="M64 -64v64h64v-64h-64zM128 0v704h64v-704h-64zM64 704v64h64v-64h-64z" />
    <glyph glyph-name="asterisk" unicode="*" horiz-adv-x="320" 
d="M64 512v64h64v-64h-64zM192 512v64h64v-64h-64zM128 576v64h64v-64h-64zM64 640v64h64v-64h-64zM192 640v64h64v-64h-64z" />
    <glyph glyph-name="plus" unicode="+" 
d="M192 128v128h-128v64h128v128h64v-128h128v-64h-128v-128h-64z" />
    <glyph glyph-name="comma" unicode="," horiz-adv-x="192" 
d="M64 -128v192h64v-192h-64z" />
    <glyph glyph-name="hyphen" unicode="-" 
d="M64 256v64h320v-64h-320z" />
    <glyph glyph-name="period" unicode="." horiz-adv-x="192" 
d="M64 0v64h64v-64h-64z" />
    <glyph glyph-name="slash" unicode="/" horiz-adv-x="512" 
d="M64 0v128h64v-128h-64zM128 128v128h64v-128h-64zM192 256v128h64v-128h-64zM256 384v128h64v-128h-64zM320 512v128h64v-128h-64zM384 640v128h64v-128h-64z" />
    <glyph glyph-name="zero" unicode="0" 
d="M192 320v64h64v-64h-64zM320 64v192h-64v64h64v320h-192v-192h64v-64h-64v-320h192zM64 0v704h320v-704h-320z" />
    <glyph glyph-name="one" unicode="1" horiz-adv-x="256" 
d="M128 0v640h-64v64h128v-704h-64z" />
    <glyph glyph-name="two" unicode="2" 
d="M64 0v320h64v-256h256v-64h-320zM128 320v64h192v256h-256v64h320v-384h-256z" />
    <glyph glyph-name="three" unicode="3" 
d="M64 0v64h256v256h-128v64h128v256h-256v64h320v-704h-320z" />
    <glyph glyph-name="four" unicode="4" 
d="M320 0v320h-256v384h64v-320h192v320h64v-704h-64z" />
    <glyph glyph-name="five" unicode="5" 
d="M64 0v64h256v256h64v-320h-320zM64 320v384h320v-64h-256v-256h192v-64h-256z" />
    <glyph glyph-name="six" unicode="6" 
d="M320 64v256h-192v-256h192zM64 0v704h320v-64h-256v-256h256v-384h-320z" />
    <glyph glyph-name="seven" unicode="7" 
d="M192 0v320h64v-320h-64zM256 320v64h64v-64h-64zM320 384v256h-256v64h320v-320h-64z" />
    <glyph glyph-name="eight" unicode="8" 
d="M320 64v256h-192v-256h192zM320 384v256h-192v-256h192zM64 0v704h320v-704h-320z" />
    <glyph glyph-name="nine" unicode="9" 
d="M320 384v256h-192v-256h192zM64 0v64h256v256h-256v384h320v-704h-320z" />
    <glyph glyph-name="colon" unicode=":" horiz-adv-x="192" 
d="M64 0v64h64v-64h-64zM64 448v64h64v-64h-64z" />
    <glyph glyph-name="semicolon" unicode=";" horiz-adv-x="192" 
d="M64 -128v192h64v-192h-64zM64 448v64h64v-64h-64z" />
    <glyph glyph-name="less" unicode="&#x3c;" horiz-adv-x="384" 
d="M192 128v64h128v-64h-128zM128 192v64h64v-64h-64zM64 256v64h64v-64h-64zM128 320v64h64v-64h-64zM192 384v64h128v-64h-128z" />
    <glyph glyph-name="equal" unicode="=" 
d="M64 192v64h320v-64h-320zM64 320v64h320v-64h-320z" />
    <glyph glyph-name="greater" unicode="&#x3e;" horiz-adv-x="384" 
d="M64 128v64h128v-64h-128zM192 192v64h64v-64h-64zM256 256v64h64v-64h-64zM192 320v64h64v-64h-64zM64 384v64h128v-64h-128z" />
    <glyph glyph-name="question" unicode="?" 
d="M192 0v64h64v-64h-64zM192 192v128h64v-128h-64zM256 320v64h64v-64h-64zM320 384v256h-192v-64h-64v128h320v-320h-64z" />
    <glyph glyph-name="at" unicode="@" horiz-adv-x="960" 
d="M576 64v192h-192v-192h192zM128 0v704h704v-704h-512v320h256v128h-256v64h320v-448h128v576h-576v-640h-64z" />
    <glyph glyph-name="A" unicode="A" 
d="M320 384v256h-192v-256h192zM64 0v704h320v-704h-64v320h-192v-320h-64z" />
    <glyph glyph-name="B" unicode="B" 
d="M64 0v704h320v-320h-64v256h-192v-256h192v-64h-192v-256h192v256h64v-320h-320z" />
    <glyph glyph-name="C" unicode="C" 
d="M64 0v704h320v-64h-256v-576h256v-64h-320z" />
    <glyph glyph-name="D" unicode="D" 
d="M320 64v576h64v-576h-64zM64 0v704h256v-64h-192v-576h192v-64h-256z" />
    <glyph glyph-name="E" unicode="E" 
d="M64 0v704h320v-64h-256v-256h192v-64h-192v-256h256v-64h-320z" />
    <glyph glyph-name="F" unicode="F" 
d="M64 0v704h320v-64h-256v-256h192v-64h-192v-320h-64z" />
    <glyph glyph-name="G" unicode="G" 
d="M64 0v704h320v-64h-256v-576h192v256h-64v64h128v-384h-320z" />
    <glyph glyph-name="H" unicode="H" 
d="M64 0v704h64v-320h192v320h64v-704h-64v320h-192v-320h-64z" />
    <glyph glyph-name="I" unicode="I" horiz-adv-x="192" 
d="M64 0v704h64v-704h-64z" />
    <glyph glyph-name="J" unicode="J" 
d="M64 0v64h256v576h-128v64h192v-704h-320z" />
    <glyph glyph-name="K" unicode="K" 
d="M320 0v320h64v-320h-64zM64 0v704h64v-320h192v-64h-192v-320h-64zM320 384v320h64v-320h-64z" />
    <glyph glyph-name="L" unicode="L" 
d="M64 0v704h64v-640h256v-64h-320z" />
    <glyph glyph-name="M" unicode="M" horiz-adv-x="576" 
d="M64 0v704h448v-704h-64v640h-128v-256h-64v256h-128v-640h-64z" />
    <glyph glyph-name="N" unicode="N" 
d="M64 0v704h320v-704h-64v640h-192v-640h-64z" />
    <glyph glyph-name="O" unicode="O" 
d="M320 64v576h-192v-576h192zM64 0v704h320v-704h-320z" />
    <glyph glyph-name="P" unicode="P" 
d="M320 384v256h-192v-256h192zM64 0v704h320v-384h-256v-320h-64z" />
    <glyph glyph-name="Q" unicode="Q" 
d="M192 -128v64h64v-64h-64zM320 64v576h-192v-576h192zM64 0v704h320v-704h-320z" />
    <glyph glyph-name="R" unicode="R" 
d="M320 0v320h64v-320h-64zM64 0v704h320v-320h-64v256h-192v-256h192v-64h-192v-320h-64z" />
    <glyph glyph-name="S" unicode="S" 
d="M64 0v64h256v256h-256v384h320v-64h-256v-256h256v-384h-320z" />
    <glyph glyph-name="T" unicode="T" 
d="M192 0v640h-128v64h320v-64h-128v-640h-64z" />
    <glyph glyph-name="U" unicode="U" 
d="M64 0v704h64v-640h192v640h64v-704h-320z" />
    <glyph glyph-name="V" unicode="V" 
d="M192 64v64h64v-64h-64zM128 128v64h64v-64h-64zM64 192v512h64v-512h-64zM256 0v64h64v640h64v-704h-128z" />
    <glyph glyph-name="W" unicode="W" horiz-adv-x="576" 
d="M64 0v704h64v-640h128v256h64v-256h128v640h64v-704h-448z" />
    <glyph glyph-name="X" unicode="X" 
d="M64 0v256h64v-256h-64zM320 0v256h64v-256h-64zM128 256v64h64v-64h-64zM256 256v64h64v-64h-64zM192 320v64h64v-64h-64zM128 384v64h64v-64h-64zM256 384v64h64v-64h-64zM64 448v256h64v-256h-64zM320 448v256h64v-256h-64z" />
    <glyph glyph-name="Y" unicode="Y" 
d="M192 0v320h-64v64h192v-64h-64v-320h-64zM64 384v320h64v-320h-64zM320 384v320h64v-320h-64z" />
    <glyph glyph-name="Z" unicode="Z" 
d="M64 0v256h64v-192h256v-64h-320zM128 256v64h64v-64h-64zM192 320v64h64v-64h-64zM256 384v64h64v-64h-64zM320 448v192h-256v64h320v-256h-64z" />
    <glyph glyph-name="bracketleft" unicode="[" horiz-adv-x="256" 
d="M64 -64v832h128v-64h-64v-704h64v-64h-128z" />
    <glyph glyph-name="backslash" unicode="\" horiz-adv-x="512" 
d="M384 0v128h64v-128h-64zM320 128v128h64v-128h-64zM256 256v128h64v-128h-64zM192 384v128h64v-128h-64zM128 512v128h64v-128h-64zM64 640v128h64v-128h-64z" />
    <glyph glyph-name="bracketright" unicode="]" horiz-adv-x="256" 
d="M64 -64v64h64v704h-64v64h128v-832h-128z" />
    <glyph glyph-name="asciicircum" unicode="^" 
d="M64 448v128h64v-128h-64zM320 448v128h64v-128h-64zM128 576v64h64v-64h-64zM256 576v64h64v-64h-64zM192 640v64h64v-64h-64z" />
    <glyph glyph-name="underscore" unicode="_" 
d="M64 -128v64h320v-64h-320z" />
    <glyph glyph-name="grave" unicode="`" horiz-adv-x="256" 
d="M128 768v64h64v-64h-64zM64 832v64h64v-64h-64z" />
    <glyph glyph-name="a" unicode="a" 
d="M320 64v192h-192v-192h192zM64 0v320h256v128h-256v64h320v-512h-320z" />
    <glyph glyph-name="b" unicode="b" 
d="M320 64v384h-192v-384h192zM64 0v704h64v-192h256v-512h-320z" />
    <glyph glyph-name="c" unicode="c" 
d="M64 0v512h320v-64h-256v-384h256v-64h-320z" />
    <glyph glyph-name="d" unicode="d" 
d="M320 64v384h-192v-384h192zM64 0v512h256v192h64v-704h-320z" />
    <glyph glyph-name="e" unicode="e" 
d="M320 256v192h-192v-192h192zM64 0v512h320v-320h-256v-128h256v-64h-320z" />
    <glyph glyph-name="f" unicode="f" horiz-adv-x="384" 
d="M64 0v704h256v-64h-192v-128h192v-64h-192v-448h-64z" />
    <glyph glyph-name="g" unicode="g" 
d="M320 128v320h-192v-320h192zM64 -128v64h256v128h-256v448h320v-640h-320z" />
    <glyph glyph-name="h" unicode="h" 
d="M64 0v704h64v-192h256v-512h-64v448h-192v-448h-64z" />
    <glyph glyph-name="i" unicode="i" horiz-adv-x="192" 
d="M64 0v512h64v-512h-64zM64 640v64h64v-64h-64z" />
    <glyph glyph-name="j" unicode="j" horiz-adv-x="192" 
d="M64 -128v640h64v-640h-64zM64 640v64h64v-64h-64z" />
    <glyph glyph-name="k" unicode="k" 
d="M320 0v256h64v-256h-64zM320 320v192h64v-192h-64zM64 0v704h64v-384h192v-64h-192v-256h-64z" />
    <glyph glyph-name="l" unicode="l" horiz-adv-x="192" 
d="M64 0v704h64v-704h-64z" />
    <glyph glyph-name="m" unicode="m" horiz-adv-x="576" 
d="M64 0v512h448v-512h-64v448h-128v-448h-64v448h-128v-448h-64z" />
    <glyph glyph-name="n" unicode="n" 
d="M64 0v512h320v-512h-64v448h-192v-448h-64z" />
    <glyph glyph-name="o" unicode="o" 
d="M320 64v384h-192v-384h192zM64 0v512h320v-512h-320z" />
    <glyph glyph-name="p" unicode="p" 
d="M320 64v384h-192v-384h192zM64 -128v640h320v-512h-256v-128h-64z" />
    <glyph glyph-name="q" unicode="q" 
d="M320 64v384h-192v-384h192zM320 -128v128h-256v512h320v-640h-64z" />
    <glyph glyph-name="r" unicode="r" horiz-adv-x="384" 
d="M64 0v512h256v-64h-192v-448h-64z" />
    <glyph glyph-name="s" unicode="s" 
d="M64 0v64h256v192h-256v256h320v-64h-256v-128h256v-320h-320z" />
    <glyph glyph-name="t" unicode="t" horiz-adv-x="320" 
d="M64 0v704h64v-192h128v-64h-128v-384h128v-64h-192z" />
    <glyph glyph-name="u" unicode="u" 
d="M64 0v512h64v-448h192v448h64v-512h-320z" />
    <glyph glyph-name="v" unicode="v" 
d="M128 64v64h64v-64h-64zM64 128v384h64v-384h-64zM192 0v64h128v448h64v-512h-192z" />
    <glyph glyph-name="w" unicode="w" horiz-adv-x="576" 
d="M64 0v512h64v-448h128v448h64v-448h128v448h64v-512h-448z" />
    <glyph glyph-name="x" unicode="x" 
d="M64 0v192h64v-192h-64zM320 0v192h64v-192h-64zM128 192v64h64v-64h-64zM256 192v64h64v-64h-64zM192 256v64h64v-64h-64zM128 320v64h64v-64h-64zM256 320v64h64v-64h-64zM64 384v128h64v-128h-64zM320 384v128h64v-128h-64z" />
    <glyph glyph-name="y" unicode="y" 
d="M64 -128v64h256v128h-256v448h64v-384h192v384h64v-640h-320z" />
    <glyph glyph-name="z" unicode="z" 
d="M64 0v192h64v-128h256v-64h-320zM128 192v64h64v-64h-64zM192 256v64h64v-64h-64zM256 320v64h64v-64h-64zM320 384v64h-256v64h320v-128h-64z" />
    <glyph glyph-name="braceleft" unicode="{" horiz-adv-x="320" 
d="M128 -64v384h-64v64h64v384h128v-64h-64v-704h64v-64h-128z" />
    <glyph glyph-name="bar" unicode="|" horiz-adv-x="192" 
d="M64 -128v960h64v-960h-64z" />
    <glyph glyph-name="braceright" unicode="}" horiz-adv-x="320" 
d="M64 -64v64h64v704h-64v64h128v-384h64v-64h-64v-384h-128z" />
    <glyph glyph-name="asciitilde" unicode="~" 
d="M64 192v128h256v64h64v-128h-256v-64h-64z" />
    <glyph glyph-name="exclamdown" unicode="&#xa1;" horiz-adv-x="192" 
d="M64 0v512h64v-512h-64zM64 640v64h64v-64h-64z" />
    <glyph glyph-name="cent" unicode="&#xa2;" 
d="M192 0v128h-128v448h128v128h64v-128h128v-64h-256v-320h256v-64h-128v-128h-64z" />
    <glyph glyph-name="sterling" unicode="&#xa3;" 
d="M64 64v640h256v-128h-64v64h-128v-256h128v-64h-128v-192h192v64h64v-128h-320z" />
    <glyph glyph-name="currency" unicode="&#xa4;" 
d="M64 192v64h64v-64h-64zM320 192v64h64v-64h-64zM256 320v64h-64v-64h64zM128 256v192h192v-192h-192zM64 448v64h64v-64h-64zM320 448v64h64v-64h-64z" />
    <glyph glyph-name="yen" unicode="&#xa5;" 
d="M192 64v64h-128v64h128v64h-128v64h128v64h-64v64h192v-64h-64v-64h128v-64h-128v-64h128v-64h-128v-64h-64zM64 448v256h64v-256h-64zM320 448v256h64v-256h-64z" />
    <glyph glyph-name="brokenbar" unicode="&#xa6;" horiz-adv-x="192" 
d="M64 -128v384h64v-384h-64zM64 448v384h64v-384h-64z" />
    <glyph glyph-name="dieresis" unicode="&#xa8;" horiz-adv-x="320" 
d="M64 768v64h64v-64h-64zM192 768v64h64v-64h-64z" />
    <glyph glyph-name="copyright" unicode="&#xa9;" horiz-adv-x="576" 
d="M192 320v256h192v-64h-128v-128h128v-64h-192zM448 256v384h-320v-384h320zM64 192v512h448v-512h-448z" />
    <glyph glyph-name="logicalnot" unicode="&#xac;" 
d="M320 192v128h-256v64h320v-192h-64z" />
    <glyph glyph-name="registered" unicode="&#xae;" horiz-adv-x="576" 
d="M320 320v64h64v-64h-64zM192 320v256h192v-128h-64v64h-64v-64h64v-64h-64v-64h-64zM448 256v384h-320v-384h320zM64 192v512h448v-512h-448z" />
    <glyph glyph-name="macron" unicode="&#xaf;" 
d="M64 768v64h320v-64h-320z" />
    <glyph glyph-name="degree" unicode="&#xb0;" horiz-adv-x="320" 
d="M192 768v64h-64v-64h64zM64 704v192h192v-192h-192z" />
    <glyph glyph-name="plusminus" unicode="&#xb1;" 
d="M64 0v64h320v-64h-320zM192 128v128h-128v64h128v128h64v-128h128v-64h-128v-128h-64z" />
    <glyph glyph-name="acute" unicode="&#xb4;" horiz-adv-x="256" 
d="M64 704v64h64v-64h-64zM128 768v64h64v-64h-64z" />
    <glyph glyph-name="mu" unicode="&#xb5;" 
d="M64 -128v640h64v-448h192v448h64v-512h-256v-128h-64z" />
    <glyph glyph-name="paragraph" unicode="&#xb6;" horiz-adv-x="576" 
d="M320 0v320h-192v64h-64v256h64v64h384v-704h-64v576h-64v-576h-64z" />
    <glyph glyph-name="periodcentered" unicode="&#xb7;" horiz-adv-x="192" 
d="M64 320v64h64v-64h-64z" />
    <glyph glyph-name="cedilla" unicode="&#xb8;" horiz-adv-x="320" 
d="M128 -128v64h64v64h64v-128h-128z" />
    <glyph glyph-name="questiondown" unicode="&#xbf;" 
d="M64 0v320h64v-256h192v64h64v-128h-320zM128 320v64h64v-64h-64zM192 384v128h64v-128h-64zM192 640v64h64v-64h-64z" />
    <glyph glyph-name="Agrave" unicode="&#xc0;" 
d="M320 384v256h-192v-256h192zM64 0v704h320v-704h-64v320h-192v-320h-64zM192 768v64h64v-64h-64zM128 832v64h64v-64h-64z" />
    <glyph glyph-name="Aacute" unicode="&#xc1;" 
d="M320 384v256h-192v-256h192zM64 0v704h320v-704h-64v320h-192v-320h-64zM192 768v64h64v-64h-64zM256 832v64h64v-64h-64z" />
    <glyph glyph-name="Acircumflex" unicode="&#xc2;" 
d="M320 384v256h-192v-256h192zM64 0v704h320v-704h-64v320h-192v-320h-64zM128 768v64h64v-64h-64zM256 768v64h64v-64h-64zM192 832v64h64v-64h-64z" />
    <glyph glyph-name="Atilde" unicode="&#xc3;" 
d="M320 384v256h-192v-256h192zM64 0v704h64v128h128v64h64v-128h-128v-64h192v-704h-64v320h-192v-320h-64z" />
    <glyph glyph-name="Adieresis" unicode="&#xc4;" 
d="M320 384v256h-192v-256h192zM64 0v704h320v-704h-64v320h-192v-320h-64zM128 768v64h64v-64h-64zM256 768v64h64v-64h-64z" />
    <glyph glyph-name="Aring" unicode="&#xc5;" 
d="M320 384v256h-192v-256h192zM256 704v64h-64v-64h64zM64 0v704h64v128h192v-128h64v-704h-64v320h-192v-320h-64z" />
    <glyph glyph-name="AE" unicode="&#xc6;" horiz-adv-x="704" 
d="M320 384v256h-192v-256h192zM64 0v704h576v-64h-256v-256h192v-64h-192v-256h256v-64h-320v320h-192v-320h-64z" />
    <glyph glyph-name="Ccedilla" unicode="&#xc7;" 
d="M128 -128v64h64v64h-128v704h320v-64h-256v-576h256v-64h-128v-128h-128z" />
    <glyph glyph-name="Egrave" unicode="&#xc8;" 
d="M64 0v704h320v-64h-256v-256h192v-64h-192v-256h256v-64h-320zM192 768v64h64v-64h-64zM128 832v64h64v-64h-64z" />
    <glyph glyph-name="Eacute" unicode="&#xc9;" 
d="M64 0v704h320v-64h-256v-256h192v-64h-192v-256h256v-64h-320zM192 768v64h64v-64h-64zM256 832v64h64v-64h-64z" />
    <glyph glyph-name="Ecircumflex" unicode="&#xca;" 
d="M64 0v704h320v-64h-256v-256h192v-64h-192v-256h256v-64h-320zM128 768v64h64v-64h-64zM256 768v64h64v-64h-64zM192 832v64h64v-64h-64z" />
    <glyph glyph-name="Edieresis" unicode="&#xcb;" 
d="M64 0v704h320v-64h-256v-256h192v-64h-192v-256h256v-64h-320zM128 768v64h64v-64h-64zM256 768v64h64v-64h-64z" />
    <glyph glyph-name="Igrave" unicode="&#xcc;" horiz-adv-x="192" 
d="M64 0v704h64v-704h-64zM64 768v64h64v-64h-64zM0 832v64h64v-64h-64z" />
    <glyph glyph-name="Iacute" unicode="&#xcd;" horiz-adv-x="192" 
d="M64 0v704h64v-704h-64zM64 768v64h64v-64h-64zM128 832v64h64v-64h-64z" />
    <glyph glyph-name="Icircumflex" unicode="&#xce;" horiz-adv-x="192" 
d="M64 0v704h64v-704h-64zM0 768v64h64v-64h-64zM128 768v64h64v-64h-64zM64 832v64h64v-64h-64z" />
    <glyph glyph-name="Idieresis" unicode="&#xcf;" horiz-adv-x="192" 
d="M64 0v704h64v-704h-64zM0 768v64h64v-64h-64zM128 768v64h64v-64h-64z" />
    <glyph glyph-name="Eth" unicode="&#xd0;" 
d="M320 64v576h64v-576h-64zM64 0v704h256v-64h-192v-256h128v-64h-128v-256h192v-64h-256z" />
    <glyph glyph-name="Ntilde" unicode="&#xd1;" 
d="M64 0v704h64v128h128v64h64v-128h-128v-64h192v-704h-64v640h-192v-640h-64z" />
    <glyph glyph-name="Ograve" unicode="&#xd2;" 
d="M320 64v576h-192v-576h192zM64 0v704h320v-704h-320zM192 768v64h64v-64h-64zM128 832v64h64v-64h-64z" />
    <glyph glyph-name="Oacute" unicode="&#xd3;" 
d="M320 64v576h-192v-576h192zM64 0v704h320v-704h-320zM192 768v64h64v-64h-64zM256 832v64h64v-64h-64z" />
    <glyph glyph-name="Ocircumflex" unicode="&#xd4;" 
d="M320 64v576h-192v-576h192zM64 0v704h320v-704h-320zM128 768v64h64v-64h-64zM256 768v64h64v-64h-64zM192 832v64h64v-64h-64z" />
    <glyph glyph-name="Otilde" unicode="&#xd5;" 
d="M320 64v576h-192v-576h192zM64 0v704h64v128h128v64h64v-128h-128v-64h192v-704h-320z" />
    <glyph glyph-name="Odieresis" unicode="&#xd6;" 
d="M320 64v576h-192v-576h192zM64 0v704h320v-704h-320zM128 768v64h64v-64h-64zM256 768v64h64v-64h-64z" />
    <glyph glyph-name="multiply" unicode="&#xd7;" 
d="M64 128v64h64v-64h-64zM320 128v64h64v-64h-64zM128 192v64h64v-64h-64zM256 192v64h64v-64h-64zM192 256v64h64v-64h-64zM128 320v64h64v-64h-64zM256 320v64h64v-64h-64zM64 384v64h64v-64h-64zM320 384v64h64v-64h-64z" />
    <glyph glyph-name="Oslash" unicode="&#xd8;" 
d="M192 256v192h64v-192h-64zM320 64v384h-64v192h-128v-384h64v-192h128zM64 -64v768h256v64h64v-768h-256v-64h-64z" />
    <glyph glyph-name="Ugrave" unicode="&#xd9;" 
d="M64 0v704h64v-640h192v640h64v-704h-320zM192 768v64h64v-64h-64zM128 832v64h64v-64h-64z" />
    <glyph glyph-name="Uacute" unicode="&#xda;" 
d="M64 0v704h64v-640h192v640h64v-704h-320zM192 768v64h64v-64h-64zM256 832v64h64v-64h-64z" />
    <glyph glyph-name="Ucircumflex" unicode="&#xdb;" 
d="M64 0v704h64v-640h192v640h64v-704h-320zM128 768v64h64v-64h-64zM256 768v64h64v-64h-64zM192 832v64h64v-64h-64z" />
    <glyph glyph-name="Udieresis" unicode="&#xdc;" 
d="M64 0v704h64v-640h192v640h64v-704h-320zM128 768v64h64v-64h-64zM256 768v64h64v-64h-64z" />
    <glyph glyph-name="Yacute" unicode="&#xdd;" 
d="M192 0v320h-64v64h192v-64h-64v-320h-64zM64 384v320h64v-320h-64zM320 384v320h64v-320h-64zM192 768v64h64v-64h-64zM256 832v64h64v-64h-64z" />
    <glyph glyph-name="Thorn" unicode="&#xde;" 
d="M320 192v320h64v-320h-64zM64 0v704h64v-128h192v-64h-192v-320h192v-64h-192v-128h-64z" />
    <glyph glyph-name="germandbls" unicode="&#xdf;" 
d="M256 384v256h-128v-256h128zM64 0v704h256v-320h64v-384h-192v64h128v256h-192v-320h-64z" />
    <glyph glyph-name="agrave" unicode="&#xe0;" 
d="M320 64v192h-192v-192h192zM64 0v320h256v128h-256v64h320v-512h-320zM192 576v64h64v-64h-64zM128 640v64h64v-64h-64z" />
    <glyph glyph-name="aacute" unicode="&#xe1;" 
d="M320 64v192h-192v-192h192zM64 0v320h256v128h-256v64h320v-512h-320zM192 576v64h64v-64h-64zM256 640v64h64v-64h-64z" />
    <glyph glyph-name="acircumflex" unicode="&#xe2;" 
d="M320 64v192h-192v-192h192zM64 0v320h256v128h-256v64h320v-512h-320zM128 576v64h64v-64h-64zM256 576v64h64v-64h-64zM192 640v64h64v-64h-64z" />
    <glyph glyph-name="atilde" unicode="&#xe3;" 
d="M320 64v192h-192v-192h192zM64 0v320h256v128h-256v64h64v128h128v64h64v-128h-128v-64h192v-512h-320z" />
    <glyph glyph-name="adieresis" unicode="&#xe4;" 
d="M320 64v192h-192v-192h192zM64 0v320h256v128h-256v64h320v-512h-320zM128 576v64h64v-64h-64zM256 576v64h64v-64h-64z" />
    <glyph glyph-name="aring" unicode="&#xe5;" 
d="M320 64v192h-192v-192h192zM256 512v64h-64v-64h64zM64 0v320h256v128h-256v64h64v128h192v-128h64v-512h-320z" />
    <glyph glyph-name="ae" unicode="&#xe6;" horiz-adv-x="704" 
d="M320 64v192h-192v-192h192zM576 256v192h-192v-192h192zM64 0v320h256v128h-256v64h576v-320h-256v-128h256v-64h-576z" />
    <glyph glyph-name="ccedilla" unicode="&#xe7;" 
d="M128 -128v64h64v64h-128v512h320v-64h-256v-384h256v-64h-128v-128h-128z" />
    <glyph glyph-name="egrave" unicode="&#xe8;" 
d="M320 256v192h-192v-192h192zM64 0v512h320v-320h-256v-128h256v-64h-320zM192 576v64h64v-64h-64zM128 640v64h64v-64h-64z" />
    <glyph glyph-name="eacute" unicode="&#xe9;" 
d="M320 256v192h-192v-192h192zM64 0v512h320v-320h-256v-128h256v-64h-320zM192 576v64h64v-64h-64zM256 640v64h64v-64h-64z" />
    <glyph glyph-name="ecircumflex" unicode="&#xea;" 
d="M320 256v192h-192v-192h192zM64 0v512h320v-320h-256v-128h256v-64h-320zM128 576v64h64v-64h-64zM256 576v64h64v-64h-64zM192 640v64h64v-64h-64z" />
    <glyph glyph-name="edieresis" unicode="&#xeb;" 
d="M320 256v192h-192v-192h192zM64 0v512h320v-320h-256v-128h256v-64h-320zM128 576v64h64v-64h-64zM256 576v64h64v-64h-64z" />
    <glyph glyph-name="igrave" unicode="&#xec;" horiz-adv-x="192" 
d="M64 0v512h64v-512h-64zM64 576v64h64v-64h-64zM0 640v64h64v-64h-64z" />
    <glyph glyph-name="iacute" unicode="&#xed;" horiz-adv-x="192" 
d="M64 0v512h64v-512h-64zM64 576v64h64v-64h-64zM128 640v64h64v-64h-64z" />
    <glyph glyph-name="icircumflex" unicode="&#xee;" horiz-adv-x="192" 
d="M64 0v512h64v-512h-64zM0 576v64h64v-64h-64zM128 576v64h64v-64h-64zM64 640v64h64v-64h-64z" />
    <glyph glyph-name="idieresis" unicode="&#xef;" horiz-adv-x="192" 
d="M64 0v512h64v-512h-64zM0 576v64h64v-64h-64zM128 576v64h64v-64h-64z" />
    <glyph glyph-name="eth" unicode="&#xf0;" 
d="M320 64v384h-192v-384h192zM320 512v64h-64v-64h64zM64 0v512h128v64h-64v64h64v64h64v-64h128v-640h-320z" />
    <glyph glyph-name="ntilde" unicode="&#xf1;" 
d="M64 0v512h64v128h128v64h64v-128h-128v-64h192v-512h-64v448h-192v-448h-64z" />
    <glyph glyph-name="ograve" unicode="&#xf2;" 
d="M320 64v384h-192v-384h192zM64 0v512h320v-512h-320zM192 576v64h64v-64h-64zM128 640v64h64v-64h-64z" />
    <glyph glyph-name="oacute" unicode="&#xf3;" 
d="M320 64v384h-192v-384h192zM64 0v512h320v-512h-320zM192 576v64h64v-64h-64zM256 640v64h64v-64h-64z" />
    <glyph glyph-name="ocircumflex" unicode="&#xf4;" 
d="M320 64v384h-192v-384h192zM64 0v512h320v-512h-320zM128 576v64h64v-64h-64zM256 576v64h64v-64h-64zM192 640v64h64v-64h-64z" />
    <glyph glyph-name="otilde" unicode="&#xf5;" 
d="M320 64v384h-192v-384h192zM64 0v512h64v128h128v64h64v-128h-128v-64h192v-512h-320z" />
    <glyph glyph-name="odieresis" unicode="&#xf6;" 
d="M320 64v384h-192v-384h192zM64 0v512h320v-512h-320zM128 576v64h64v-64h-64zM256 576v64h64v-64h-64z" />
    <glyph glyph-name="divide" unicode="&#xf7;" 
d="M192 128v64h64v-64h-64zM64 256v64h320v-64h-320zM192 384v64h64v-64h-64z" />
    <glyph glyph-name="oslash" unicode="&#xf8;" 
d="M192 192v128h64v-128h-64zM320 64v256h-64v128h-128v-256h64v-128h128zM64 -64v576h256v64h64v-576h-256v-64h-64z" />
    <glyph glyph-name="ugrave" unicode="&#xf9;" 
d="M64 0v512h64v-448h192v448h64v-512h-320zM192 576v64h64v-64h-64zM128 640v64h64v-64h-64z" />
    <glyph glyph-name="uacute" unicode="&#xfa;" 
d="M64 0v512h64v-448h192v448h64v-512h-320zM192 576v64h64v-64h-64zM256 640v64h64v-64h-64z" />
    <glyph glyph-name="ucircumflex" unicode="&#xfb;" 
d="M64 0v512h64v-448h192v448h64v-512h-320zM128 576v64h64v-64h-64zM256 576v64h64v-64h-64zM192 640v64h64v-64h-64z" />
    <glyph glyph-name="udieresis" unicode="&#xfc;" 
d="M64 0v512h64v-448h192v448h64v-512h-320zM128 576v64h64v-64h-64zM256 576v64h64v-64h-64z" />
    <glyph glyph-name="yacute" unicode="&#xfd;" 
d="M64 -128v64h256v128h-256v448h64v-384h192v384h64v-640h-320zM192 576v64h64v-64h-64zM256 640v64h64v-64h-64z" />
    <glyph glyph-name="thorn" unicode="&#xfe;" horiz-adv-x="384" 
d="M256 128v256h64v-256h-64zM64 0v512h64v-64h128v-64h-128v-256h128v-64h-128v-64h-64z" />
    <glyph glyph-name="ydieresis" unicode="&#xff;" 
d="M64 -128v64h256v128h-256v448h64v-384h192v384h64v-640h-320zM128 576v64h64v-64h-64zM256 576v64h64v-64h-64z" />
    <glyph glyph-name="Ydieresis" unicode="&#x178;" 
d="M192 0v320h-64v64h192v-64h-64v-320h-64zM64 384v320h64v-320h-64zM320 384v320h64v-320h-64zM128 768v64h64v-64h-64zM256 768v64h64v-64h-64z" />
    <glyph glyph-name="emdash" unicode="&#x2014;" horiz-adv-x="576" 
d="M64 256v64h448v-64h-448z" />
    <glyph glyph-name="quoteleft" unicode="&#x2018;" horiz-adv-x="192" 
d="M64 512v192h64v-192h-64z" />
    <glyph glyph-name="quoteright" unicode="&#x2019;" horiz-adv-x="192" 
d="M64 512v192h64v-192h-64z" />
    <glyph glyph-name="quotedblleft" unicode="&#x201c;" horiz-adv-x="320" 
d="M64 512v192h64v-192h-64zM192 512v192h64v-192h-64z" />
    <glyph glyph-name="quotedblright" unicode="&#x201d;" horiz-adv-x="320" 
d="M64 512v192h64v-192h-64zM192 512v192h64v-192h-64z" />
    <glyph glyph-name="dagger" unicode="&#x2020;" 
d="M192 64v384h-128v64h128v192h64v-192h128v-64h-128v-384h-64z" />
    <glyph glyph-name="bullet" unicode="&#x2022;" horiz-adv-x="256" 
d="M64 256v128h128v-128h-128z" />
    <glyph glyph-name="ellipsis" unicode="&#x2026;" 
d="M64 0v64h64v-64h-64zM192 0v64h64v-64h-64zM320 0v64h64v-64h-64z" />
    <glyph glyph-name="Euro" unicode="&#x20ac;" 
d="M64 64v640h320v-64h-256v-192h128v-64h-128v-64h128v-64h-128v-128h256v-64h-320z" />
    <glyph glyph-name="trademark" unicode="&#x2122;" horiz-adv-x="512" 
d="M128 448v192h-64v64h384v-256h-64v128h-64v-128h-64v192h-64v-192h-64z" />
    <glyph glyph-name="greaterequal" unicode="&#x2265;" 
d="M64 0v64h320v-64h-320zM128 128v64h128v-64h-128zM256 192v64h64v-64h-64zM320 256v64h64v-64h-64zM256 320v64h64v-64h-64zM128 384v64h128v-64h-128z" />
    <glyph glyph-name="lessequal" unicode="&#x2264;" 
d="M64 0v64h320v-64h-320zM192 128v64h128v-64h-128zM128 192v64h64v-64h-64zM64 256v64h64v-64h-64zM128 320v64h64v-64h-64zM192 384v64h128v-64h-128z" />
    <glyph glyph-name="notequal" unicode="&#x2260;" 
d="M128 64v128h-64v64h128v64h-128v64h192v128h64v-128h64v-64h-128v-64h128v-64h-192v-128h-64z" />
    <glyph glyph-name="endash" unicode="&#x2013;" 
d="M64 256v64h320v-64h-320z" />
    <glyph glyph-name="NULL" horiz-adv-x="0" 
 />
  </font>
</defs>
</svg>
